<svg width="24" height="24" viewBox="0 0 24 24" fill="currentColor" xmlns="http://www.w3.org/2000/svg">
<path opacity="0.2" d="M21.3024 12.0001C21.3024 17.1376 17.1376 21.3024 12.0001 21.3024C6.86255 21.3024 2.69775 17.1376 2.69775 12.0001C2.69775 6.86255 6.86255 2.69775 12.0001 2.69775C17.1376 2.69775 21.3024 6.86255 21.3024 12.0001Z" fill="transparent"/>
<path fill-rule="evenodd" clip-rule="evenodd" d="M12 3.39535C7.24778 3.39535 3.39535 7.24778 3.39535 12C3.39535 16.7522 7.24778 20.6047 12 20.6047C16.7522 20.6047 20.6047 16.7522 20.6047 12C20.6047 7.24778 16.7522 3.39535 12 3.39535ZM2 12C2 6.47715 6.47715 2 12 2C17.5228 2 22 6.47715 22 12C22 17.5228 17.5228 22 12 22C6.47715 22 2 17.5228 2 12Z" fill="inherit"/>
<path fill-rule="evenodd" clip-rule="evenodd" d="M17.1809 8.75527C17.4316 9.04783 17.3978 9.48827 17.1052 9.73903L10.5936 15.3204C10.3168 15.5577 9.90399 15.5418 9.6462 15.284L6.85551 12.4933C6.58305 12.2209 6.58305 11.7791 6.85551 11.5067C7.12797 11.2342 7.56971 11.2342 7.84217 11.5067L10.176 13.8405L16.1971 8.6796C16.4897 8.42884 16.9301 8.46272 17.1809 8.75527Z" fill="inherit"/>
</svg>
