<svg width="24" height="24" viewBox="0 0 24 24" fill="currentColor" xmlns="http://www.w3.org/2000/svg">
<path opacity="0.2" id="overlay" d="M21 12C21 16.9706 16.9706 21 12 21C7.02944 21 3 16.9706 3 12C3 7.02944 7.02944 3 12 3C16.9706 3 21 7.02944 21 12Z" fill="transparent"/>
<path fill-rule="evenodd" clip-rule="evenodd" d="M12 3.39535C7.24778 3.39535 3.39535 7.24778 3.39535 12C3.39535 16.7522 7.24778 20.6047 12 20.6047C16.7522 20.6047 20.6047 16.7522 20.6047 12C20.6047 7.24778 16.7522 3.39535 12 3.39535ZM2 12C2 6.47715 6.47715 2 12 2C17.5228 2 22 6.47715 22 12C22 17.5228 17.5228 22 12 22C6.47715 22 2 17.5228 2 12Z" fill="currentColor"/>
<path fill-rule="evenodd" clip-rule="evenodd" d="M12 18.2791C12.3853 18.2791 12.6977 17.9667 12.6977 17.5814V10.1395C12.6977 9.75422 12.3853 9.44186 12 9.44186C11.6147 9.44186 11.3023 9.75422 11.3023 10.1395V17.5814C11.3023 17.9667 11.6147 18.2791 12 18.2791Z" fill="currentColor"/>
<path fill-rule="evenodd" clip-rule="evenodd" d="M12 8.04651C12.3853 8.04651 12.6977 7.73415 12.6977 7.34884V6.4186C12.6977 6.03329 12.3853 5.72093 12 5.72093C11.6147 5.72093 11.3023 6.03329 11.3023 6.4186V7.34884C11.3023 7.73415 11.6147 8.04651 12 8.04651Z" fill="currentColor"/>
</svg>
